<svg width="48" height="48" viewBox="0 0 48 48" fill="none" xmlns="http://www.w3.org/2000/svg">
<rect width="48" height="48" fill="white"/>
<path d="M17.0875 6.69063C16.1099 6.69063 15.2032 6.90948 14.4 7.37188C11.8898 8.82114 10.9343 12.3529 11.4406 16.75C7.38031 18.5101 4.79999 21.1019 4.79999 24C4.79999 26.8981 7.38031 29.4899 11.4406 31.25C10.9346 35.647 11.8898 39.1789 14.4 40.6281C15.2016 41.0905 16.1083 41.3094 17.0875 41.3094C19.1717 41.3094 21.5805 40.2633 24 38.4688C26.4196 40.2633 28.8314 41.3094 30.9156 41.3094C31.8932 41.3094 32.7999 41.0905 33.6031 40.6281C36.1133 39.1789 37.0688 35.6471 36.5625 31.25C40.6213 29.4899 43.2 26.8975 43.2 24C43.2 21.1019 40.6197 18.5101 36.5594 16.75C37.0654 12.353 36.1102 8.82114 33.6 7.37188C32.7984 6.90788 31.8917 6.69063 30.9125 6.69063C28.8283 6.69063 26.4194 7.73666 24 9.53125C21.5804 7.73666 19.171 6.69063 17.0875 6.69063ZM17.0875 9.49063C18.3381 9.49063 19.9919 10.1556 21.7875 11.3875C20.7318 12.3838 19.6978 13.5167 18.7031 14.7781C17.0897 15.0095 15.5685 15.3467 14.1594 15.7688C14.1518 15.671 14.1339 15.5685 14.1281 15.4719C13.9569 12.6239 14.5824 10.5009 15.8 9.79688C16.16 9.58888 16.5803 9.49063 17.0875 9.49063ZM30.9125 9.49063C31.4181 9.49063 31.84 9.58888 32.2 9.79688C33.4176 10.4993 34.0431 12.6239 33.8719 15.4719C33.8661 15.5685 33.8482 15.671 33.8406 15.7688C32.4305 15.3464 30.9083 15.0095 29.2937 14.7781C28.299 13.5169 27.2682 12.3837 26.2125 11.3875C28.0079 10.1558 29.6625 9.49063 30.9125 9.49063ZM24 13.1656C24.4337 13.5604 24.8644 13.9777 25.3 14.4344C24.8683 14.4199 24.439 14.4 24 14.4C23.562 14.4 23.1337 14.4199 22.7031 14.4344C23.1383 13.9781 23.5667 13.56 24 13.1656ZM24 17.2C25.3259 17.2 26.5826 17.2741 27.775 17.4031C28.5022 18.3915 29.2188 19.4365 29.8906 20.6C30.5345 21.7153 31.1039 22.8568 31.6062 24C31.1038 25.1439 30.5349 26.2872 29.8906 27.4031C29.2209 28.5633 28.506 29.6015 27.7812 30.5875C26.5467 30.7226 25.2803 30.8 24 30.8C22.6741 30.8 21.4174 30.7259 20.225 30.5969C19.4978 29.6085 18.7811 28.5666 18.1094 27.4031C17.4651 26.2872 16.8963 25.1439 16.3937 24C16.8959 22.8568 17.4655 21.7153 18.1094 20.6C18.7793 19.4399 19.4938 18.3985 20.2187 17.4125C21.4533 17.2774 22.7196 17.2 24 17.2ZM31.5937 18.0656C32.2285 18.2189 32.8388 18.3843 33.4125 18.5688C33.2825 19.156 33.1236 19.7546 32.9437 20.3594C32.7379 19.973 32.5382 19.5854 32.3156 19.2C32.0866 18.8035 31.8324 18.4473 31.5937 18.0656ZM16.4031 18.0688C16.1653 18.4492 15.9126 18.8048 15.6844 19.2C15.4619 19.5855 15.2621 19.973 15.0562 20.3594C14.876 19.7533 14.7145 19.1541 14.5844 18.5656C15.1686 18.381 15.7773 18.2176 16.4031 18.0688ZM11.95 19.5938C12.2871 21.0171 12.7548 22.4927 13.3562 23.9969C12.756 25.4975 12.2903 26.9703 11.9531 28.3906C9.16676 27.0451 7.59999 25.3702 7.59999 24C7.59999 22.5936 9.12299 20.9908 11.675 19.7156C11.7621 19.672 11.861 19.6363 11.95 19.5938ZM36.0469 19.6094C38.8332 20.9549 40.4 22.6298 40.4 24C40.4 25.4064 38.877 27.0092 36.325 28.2844C36.2379 28.328 36.139 28.3637 36.05 28.4063C35.7127 26.982 35.2489 25.5051 34.6469 24C35.2464 22.5007 35.7099 21.0285 36.0469 19.6094ZM24 20.8C22.232 20.8 20.8 22.232 20.8 24C20.8 25.768 22.232 27.2 24 27.2C25.768 27.2 27.2 25.768 27.2 24C27.2 22.232 25.768 20.8 24 20.8ZM15.0562 27.6406C15.2622 28.0271 15.4648 28.4144 15.6875 28.8C15.9162 29.1962 16.1679 29.553 16.4062 29.9344C15.7714 29.7811 15.1612 29.6157 14.5875 29.4313C14.7176 28.8436 14.8763 28.2458 15.0562 27.6406ZM32.9437 27.6438C33.1238 28.2492 33.2856 28.8465 33.4156 29.4344C32.8314 29.619 32.2227 29.7824 31.5969 29.9313C31.8347 29.5508 32.0873 29.1952 32.3156 28.8C32.5377 28.4153 32.7383 28.0294 32.9437 27.6438ZM14.1594 32.2312C15.5694 32.6536 17.0917 32.9905 18.7062 33.2219C19.7012 34.4838 20.7313 35.6191 21.7875 36.6156C19.9921 37.8472 18.338 38.5125 17.0875 38.5125C16.5819 38.5125 16.16 38.4111 15.8 38.2031C14.5824 37.5007 13.9569 35.3793 14.1281 32.5313C14.134 32.4336 14.1517 32.33 14.1594 32.2312ZM33.8406 32.2312C33.8483 32.33 33.866 32.4336 33.8719 32.5313C34.0431 35.3793 33.4176 37.4991 32.2 38.2031C31.84 38.4111 31.4197 38.5125 30.9125 38.5125C29.662 38.5125 28.0079 37.8474 26.2125 36.6156C27.2687 35.619 28.3017 34.4839 29.2969 33.2219C30.9103 32.9905 32.4314 32.6533 33.8406 32.2312ZM22.7 33.5656C23.1316 33.5801 23.561 33.6 24 33.6C24.439 33.6 24.8683 33.5801 25.3 33.5656C24.8644 34.0223 24.4337 34.4396 24 34.8344C23.5663 34.4396 23.1356 34.0223 22.7 33.5656Z" fill="#61DBFB"/>
</svg>
