<svg width="50" height="50" viewBox="0 0 50 50" fill="none" xmlns="http://www.w3.org/2000/svg">
<path d="M49.729 11H48.879C47.828 11 46.838 11.49 46.199 12.324L37.499 23.701L28.799 12.324C28.162 11.49 27.171 11 26.121 11H25.271L36.242 25.346L25.036 40H25.886C26.937 40 27.927 39.51 28.565 38.676L37.5 26.992L46.435 38.676C47.073 39.51 48.063 40 49.114 40H49.964L38.758 25.346L49.729 11ZM21.289 34.242C18.735 38.123 13.707 40.112 8.9 38.358C4.671 36.815 2 32.611 2 28.109V27H14H25V22.866C25 16.361 20.182 10.666 13.705 10.057C6.273 9.358 0 15.21 0 22.5V28.073C0 33.444 3.215 38.437 8.269 40.256C14.872 42.632 21.817 39.086 24.165 33H23.527C22.616 33 21.789 33.481 21.289 34.242ZM2 22.5C2 16.71 6.71 12 12.5 12C18.29 12 23 16.71 23 22.5V25H2V22.5Z" fill="black"/>
</svg>
