<svg width="78" height="33" viewBox="0 0 78 33" fill="none" xmlns="http://www.w3.org/2000/svg">
<path d="M41.2958 0V13.022L43.3473 15.8762L45.2203 13.022V0H41.2958Z" fill="#867555"/>
<path d="M41.2958 0V13.022L43.3473 15.8762L45.2203 13.022V0H41.2958Z" fill="#867555"/>
<path d="M12.7544 10.0787V5.97586L0 14.6275V17.214L12.7544 28.8982V24.3494L4.01364 16.0545L12.7544 10.0787Z" fill="#262935"/>
<path d="M12.7544 10.0787V5.97586L0 14.6275V17.214L12.7544 28.8982V24.3494L4.01364 16.0545L12.7544 10.0787Z" fill="#262935"/>
<path d="M65.0209 10.0787V5.97586L77.7753 14.6275V17.214L65.0209 28.8982V24.3494L73.7617 16.0545L65.0209 10.0787Z" fill="#867555"/>
<path d="M65.0209 10.0787V5.97586L77.7753 14.6275V17.214L65.0209 28.8982V24.3494L73.7617 16.0545L65.0209 10.0787Z" fill="#867555"/>
<path d="M20.8709 0H17.3924V32.5419H21.406V6.86778L41.831 32.555H45.2203V23.6359H41.2958V25.4197L20.8709 0Z" fill="#867555"/>
<path d="M20.8709 0H17.3924V32.5419H21.406V6.86778L41.831 32.555H45.2203V23.6359H41.2958V25.4197L20.8709 0Z" fill="#867555"/>
<path d="M32.3767 32.5551H28.2739V16.9465L32.3767 21.7628V32.5551Z" fill="#262935"/>
<path d="M43.2581 17.4816L32.1983 0.891907H28.2738L28.363 7.67049L32.2875 12.4869V8.20564L41.9202 22.2088H44.5959L54.2558 8.20564V32.555H58.3315V0.891907H54.4962L43.2581 17.4816Z" fill="#262935"/>
<path d="M43.2581 17.4816L32.1983 0.891907H28.2738L28.363 7.67049L32.2875 12.4869V8.20564L41.9202 22.2088H44.5959L54.2558 8.20564V32.555H58.3315V0.891907H54.4962L43.2581 17.4816Z" fill="#262935"/>
</svg>
