<svg width="43" height="44" viewBox="0 0 43 44" fill="none" xmlns="http://www.w3.org/2000/svg">
<path d="M42.5438 0.436319C42.3471 0.240666 42.0999 0.10343 41.8298 0.0398744C41.5596 -0.0236812 41.2772 -0.0110654 41.0138 0.0763191L1.01383 13.4063C0.722847 13.5076 0.46979 13.6954 0.288628 13.9446C0.107467 14.1938 0.00686997 14.4924 0.000339402 14.8005C-0.00619116 15.1085 0.0816573 15.4111 0.252094 15.6678C0.422531 15.9245 0.6674 16.1228 0.953834 16.2363L19.6538 23.3263L26.7438 42.0263C26.8499 42.3221 27.0457 42.5774 27.3038 42.7567C27.562 42.936 27.8696 43.0302 28.1838 43.0263C28.4902 43.0228 28.7881 42.9249 29.0368 42.7459C29.2856 42.567 29.4731 42.3157 29.5738 42.0263L42.9038 2.02632C43.0035 1.7548 43.0226 1.46025 42.9587 1.17814C42.8948 0.896043 42.7508 0.638424 42.5438 0.436319ZM28.0638 37.0263L22.5638 22.4963L27.2838 17.7763C27.5488 17.492 27.693 17.1159 27.6862 16.7273C27.6793 16.3387 27.5219 15.9679 27.2471 15.6931C26.9723 15.4182 26.6015 15.2608 26.2129 15.254C25.8243 15.2471 25.4482 15.3914 25.1638 15.6563L20.4838 20.4163L5.99383 14.9163L39.1138 3.86632L28.0638 37.0263Z" fill="#262935"/>
</svg>
