<svg width="44" height="44" viewBox="0 0 44 44" fill="none" xmlns="http://www.w3.org/2000/svg">
<path d="M43.06 0.939981C42.8632 0.744328 42.616 0.607092 42.3459 0.543537C42.0758 0.479981 41.7934 0.492597 41.53 0.579981L1.53001 13.91C1.23902 14.0112 0.985965 14.199 0.804803 14.4482C0.623641 14.6974 0.523044 14.9961 0.516514 15.3041C0.509983 15.6122 0.597832 15.9148 0.768268 16.1715C0.938705 16.4281 1.18357 16.6265 1.47001 16.74L20.17 23.83L27.26 42.53C27.3661 42.8258 27.5619 43.0811 27.82 43.2604C28.0781 43.4396 28.3858 43.5339 28.7 43.53C29.0064 43.5265 29.3043 43.4285 29.553 43.2496C29.8017 43.0706 29.9893 42.8194 30.09 42.53L43.42 2.52998C43.5197 2.25846 43.5387 1.96391 43.4749 1.68181C43.411 1.3997 43.2669 1.14209 43.06 0.939981ZM28.58 37.53L23.08 23L27.8 18.28C28.065 17.9956 28.2092 17.6195 28.2024 17.2309C28.1955 16.8423 28.0381 16.4716 27.7633 16.1967C27.4884 15.9219 27.1177 15.7645 26.7291 15.7576C26.3405 15.7508 25.9644 15.895 25.68 16.16L21 20.92L6.51001 15.42L39.63 4.36998L28.58 37.53Z" fill="#867555"/>
<path d="M10.22 25.48C10.485 25.1956 10.6292 24.8195 10.6224 24.4309C10.6155 24.0423 10.4581 23.6716 10.1832 23.3967C9.90842 23.1219 9.53765 22.9645 9.14905 22.9576C8.76045 22.9508 8.38435 23.095 8.1 23.36L3.62 27.84C3.34152 28.1225 3.18541 28.5033 3.18541 28.9C3.18541 29.2967 3.34152 29.6775 3.62 29.96C3.75859 30.1003 3.92365 30.2117 4.10561 30.2877C4.28756 30.3637 4.4828 30.4028 4.68 30.4028C4.8772 30.4028 5.07244 30.3637 5.2544 30.2877C5.43636 30.2117 5.60141 30.1003 5.74 29.96L10.22 25.48Z" fill="#867555"/>
<path d="M13.88 30.12C13.7414 29.9797 13.5764 29.8683 13.3944 29.7923C13.2125 29.7163 13.0172 29.6771 12.82 29.6771C12.6228 29.6771 12.4276 29.7163 12.2456 29.7923C12.0637 29.8683 11.8986 29.9797 11.76 30.12L6.08001 35.8C5.81505 36.0843 5.67081 36.4604 5.67766 36.849C5.68452 37.2376 5.84194 37.6084 6.11677 37.8832C6.39159 38.1581 6.76237 38.3155 7.15097 38.3223C7.53957 38.3292 7.91566 38.1849 8.20001 37.92L13.88 32.24C14.0203 32.1014 14.1317 31.9363 14.2077 31.7544C14.2837 31.5724 14.3229 31.3772 14.3229 31.18C14.3229 30.9828 14.2837 30.7875 14.2077 30.6056C14.1317 30.4236 14.0203 30.2586 13.88 30.12Z" fill="#867555"/>
<path d="M18.52 33.78L14 38.26C13.7351 38.5443 13.5908 38.9204 13.5977 39.309C13.6045 39.6976 13.7619 40.0684 14.0368 40.3432C14.3116 40.6181 14.6824 40.7755 15.071 40.7823C15.4596 40.7892 15.8357 40.645 16.12 40.38L20.6 35.9C20.8195 35.6132 20.9282 35.2569 20.9061 34.8964C20.884 34.5359 20.7326 34.1955 20.4796 33.9377C20.2267 33.6799 19.8893 33.522 19.5293 33.4931C19.1693 33.4641 18.8109 33.566 18.52 33.78Z" fill="#867555"/>
</svg>
