<svg width="99" height="102" viewBox="0 0 99 102" fill="none" xmlns="http://www.w3.org/2000/svg">
<path fill-rule="evenodd" clip-rule="evenodd" d="M99 54.9231L99 34.7077C99 18.1391 85.5686 4.70769 69 4.70769L30.9231 4.70769C14.3546 4.70769 0.923104 18.1392 0.923106 34.7077L0.923107 54.9231L5.92311 54.9231L5.92311 34.7077C5.9231 20.9006 17.116 9.70769 30.9231 9.70769L69 9.70769C82.8071 9.70769 94 20.9006 94 34.7077L94 54.9231L99 54.9231Z" fill="#867555"/>
<mask id="mask0_5_73" style="mask-type:alpha" maskUnits="userSpaceOnUse" x="1" y="0" width="98" height="102">
<rect x="1" y="0.784607" width="98" height="101.215" rx="41" fill="#D9D9D9"/>
</mask>
<g mask="url(#mask0_5_73)">
<path d="M61.218 33.258L60.3448 29.2296L59.4425 30.0413L56.1824 31.7849C56.3958 40.0021 57.5132 55.3686 57.7715 48.5692C57.601 39.5457 59.7392 37.3779 59.9664 35.7833C60.3296 34.6139 60.5291 34.1899 60.8396 33.8292L61.218 33.258Z" fill="#855D3F"/>
<path d="M60.8322 33.8538C60.213 35.3292 59.1368 38.0173 58.5873 39.7552C58.3802 40.8913 58.2304 41.5548 58.2435 41.1834C58.2531 40.9098 58.3843 40.3973 58.5873 39.7552C59.087 37.0141 59.9204 31.5223 59.6048 31.1801C59.2477 30.7929 60.0662 30.1773 60.5125 29.9698L61.5724 30.5765L60.8322 33.8538Z" fill="#493526"/>
<path d="M35.9087 53.9713C35.8738 55.4744 35.7988 57.4926 35.7303 58.4292C35.5935 59.2951 35.1101 60.9505 35.2013 63.4914C34.6951 64.5109 33.9712 66.84 35.1253 68.0006C36.568 69.4514 47.0844 69.373 53.6524 67.2556C60.2204 65.1382 63.6252 54.4435 62.7339 53.8298C61.8426 53.2161 58.921 51.4261 58.2773 50.0964C57.6336 48.7667 57.386 45.289 57.1384 42.6807C56.9403 40.5941 57.3529 37.0039 57.584 35.4696C57.6335 35.0434 58 33.8637 59.0696 32.5544C60.4066 30.9179 61.281 28.5034 60.7858 26.3554C60.2906 24.2074 58.846 23.62 56.5251 23.4356C55.253 21.6378 51.8394 17.2381 48.717 18.2792C48.1814 18.2562 41.8342 17.024 39.7364 16.3326C38.0582 15.7794 35.5197 13.8037 34.0022 12.9355C33.5112 12.9355 30.6598 14.0316 29.6332 15.5989C28.6066 17.1662 26.9998 18.1189 26.7543 19.1024C26.6576 19.6939 27.2141 21.8175 26.5535 23.4586C25.8929 25.0997 25.9076 26.246 25.9975 26.6141L26.536 28.0421C26.7592 28.2525 27.1134 29.0986 25.8811 30.4922C24.8216 31.9472 24.8575 32.9824 25.0078 33.3181C25.4105 33.9093 26.3555 35.1249 26.9144 35.2571C27.613 35.4225 27.6895 36.3766 27.5003 36.587C27.3489 36.7554 27.0866 37.7389 27.0041 38.1598C26.9216 39.5828 26.8672 42.3657 27.8459 43.5395C28.789 44.4293 28.5493 45.0426 28.3116 45.238C28.2 45.3332 27.9856 45.8573 28.0205 47.1921C28.2703 48.9395 29.5094 49.414 30.3773 49.846C32.0771 50.1369 33.6258 50.2826 35.0937 50.6794C36.0135 50.6433 36.1076 51.1454 36.0397 51.4009C36.0106 51.6314 35.9437 52.4681 35.9087 53.9713Z" fill="#EEA671"/>
<path d="M36.389 58.9918C35.9466 58.0779 35.933 53.36 35.9815 51.1153L48.7308 45.3432C48.624 45.7441 48.3582 46.648 48.1486 47.0568C47.8866 47.5679 46.2275 48.9508 45.7909 49.4318C45.3542 49.9128 43.0256 50.484 41.1918 51.2957C39.358 52.1074 39.7947 54.0314 41.5411 55.8051C42.9383 57.2241 42.395 58.4206 41.9486 58.8415C41.512 59.2523 40.9764 60.2905 42.327 61.1563C44.0153 62.2386 45.9364 66.1167 46.0237 67.0486C46.1111 67.9806 42.3852 67.0787 40.0566 66.8983C37.728 66.7179 39.6782 69.634 38.8341 69.8745C37.99 70.115 35.0501 69.5739 34.4097 69.3034C33.7693 69.0328 33.682 67.9205 33.7111 67.0486C33.7402 66.1768 34.0895 64.9142 35.2538 62.9902C35.4576 60.9158 35.836 60.1943 36.389 58.9918Z" fill="#E89F6A"/>
<path d="M36.389 59.2924L36.4577 59.7472C36.8518 61.5177 38.8397 66.464 39.882 68.9426L37.6698 67.7702L36.4577 59.7472C36.4153 59.5563 36.3913 59.4024 36.389 59.2924Z" fill="#C3865A"/>
<path d="M38.7759 58.9617C38.217 57.4225 36.9906 53.33 36.4473 51.4761L37.99 49.9729L47.1589 45.3733C47.1783 45.6038 47.0949 46.2331 46.6059 46.9065C45.9946 47.7483 40.4059 51.0853 39.3871 51.8368C38.5721 52.4381 39.0476 53.8911 39.3871 54.5425C40.3186 55.5346 41.9952 57.651 41.25 58.1801C40.3186 58.8415 40.3186 60.2244 40.8134 60.5551C41.3083 60.8858 45.82 66.0866 45.4998 66.5977C45.1796 67.1088 42.8219 66.2069 42.6181 66.1167C42.4144 66.0265 39.4745 60.8858 38.7759 58.9617Z" fill="#C3865A"/>
<path d="M35.1665 66.5376C34.8638 65.5756 35.3991 61.1233 35.3962 60.3377C33.4047 66.9755 34.1768 69.1831 34.3515 69.2132C34.5261 69.2432 37.5242 69.3635 37.2041 69.1831C36.8839 69.0027 35.5449 67.7401 35.1665 66.5376Z" fill="#C3865A"/>
<path d="M26.5593 29.43C26.89 28.9068 28.5718 26.8574 29.2787 25.8097C29.7432 25.5853 29.8038 26.3273 29.776 26.7263L28.8692 28.2814C28.6353 28.6643 28.1505 29.6527 28.0821 30.5434C28.8235 30.7731 30.4399 31.2255 30.9737 31.1972C31.641 31.1619 32.0345 32.3635 32.1885 33.2648C32.3425 34.166 32.0345 34.2191 31.8634 34.3958C31.7266 34.5371 30.8254 34.6078 30.392 34.6255C30.1296 34.5548 29.6665 34.3145 29.9129 33.9186C30.2209 33.4238 30.0155 33.4945 29.16 33.0351C28.3045 32.5756 27.8254 32.8583 27.5003 33.0351C27.1752 33.2118 26.3026 33.4592 25.8749 33.3885C25.4471 33.3178 24.969 32.5174 25.0193 32.2575C25.1828 31.4127 26.1467 30.0827 26.5593 29.43Z" fill="#E89F6A"/>
<path d="M27.2259 31.4363C27.1624 31.4349 27.1018 31.434 27.0445 31.4336C27.0892 31.4231 27.1508 31.4247 27.2259 31.4363C28.3827 31.462 30.4984 31.6627 30.9723 32.3095C30.8473 33.0286 30.2209 32.8089 29.9234 32.6091C29.218 32.2279 27.8106 31.5269 27.2259 31.4363Z" fill="#EEA671"/>
<path d="M28.9793 33.7657C29.3736 33.9984 29.7336 34.0081 29.8644 33.9839C29.8174 34.0912 29.6914 34.3267 29.5627 34.4098C29.4017 34.5137 28.1747 34.7006 27.5109 34.6903C26.847 34.6799 26.7062 34.4929 26.5151 34.4617C26.324 34.4306 25.5898 33.8592 25.3082 33.506C25.0829 33.2235 24.911 32.4174 25.0283 32.2962C25.4206 32.4624 27.3069 33.2664 27.331 33.3495C27.3612 33.4534 27.8053 33.6386 28.0064 33.5555C28.2076 33.4724 28.3859 33.6203 28.9793 33.7657Z" fill="#C3865A"/>
<path d="M28.2981 32.7826C27.8848 32.6934 27.1954 33.0268 26.9024 33.2047C26.9024 33.4277 28.0283 33.6347 28.1979 33.6268C28.3675 33.6188 28.9382 33.8577 29.2543 34.0011C29.5705 34.1444 30.1334 33.6905 30.1334 33.5631C30.1334 33.4356 28.8148 32.8941 28.2981 32.7826Z" fill="black"/>
<path d="M30.3055 24.5698C32.2149 20.9622 44.1671 19.1047 49.4356 18.774L46.2566 14.7092L35.7777 11.7029L30.1017 12.8753L29.2867 16.4528C28.8889 16.8637 27.7212 18.4514 26.9528 21.8666C26.1418 24.3903 25.8465 25.5751 25.9989 26.5629C26.2251 27.4606 27.0097 28.9041 26.5379 29.4276L26.5814 29.3795C27.6839 28.1624 28.7476 26.9881 30.3055 24.5698Z" fill="#D99564"/>
<path d="M36.1561 18.1364C34.1768 18.425 31.7221 20.0604 30.7421 20.842C30.6138 20.9706 30.2627 21.1965 29.8845 21.0719C29.4118 20.916 28.3155 21.3731 27.8126 21.3939C27.4103 21.4105 27.0281 21.7748 26.8873 21.9548L26.9577 20.3655L28.0137 18.5996C27.9333 19.0982 27.8528 20.139 28.1747 20.3135C28.4965 20.4881 29.6967 20.1924 30.2566 20.0227C30.8163 19.5342 32.116 18.437 32.8379 17.956C33.7402 17.3547 38.6303 17.7756 36.1561 18.1364Z" fill="#C3865A"/>
<path d="M47.0537 18.7482C47.5522 18.816 49.2368 18.6727 49.6249 18.8431L50.0697 18.2566L47.5082 16.3927L34.2059 11.7029C32.964 12.0236 30.6198 12.9715 31.1787 14.1981C31.8773 15.7313 38.1354 17.1142 38.834 17.505C39.5326 17.8958 46.4477 18.6659 47.0537 18.7482Z" fill="#493526"/>
<path d="M50.3874 25.3784C50.6303 23.9354 49.9372 20.2924 49.5196 18.7893L53.1381 19.5968L56.1655 20.3447C56.3801 21.4112 56.7227 23.5462 56.3767 23.5545C54.9535 23.5887 52.7806 25.1868 51.6782 26.0057L50.1975 27.6134C50.1596 27.4696 50.1444 26.8213 50.3874 25.3784Z" fill="#855D3F"/>
<path d="M49.5675 18.8385C50.2281 19.0782 54.3974 22.1218 56.4134 23.5509L57.3061 22.4214L53.5345 18.5262C51.9277 18.5723 48.9069 18.5988 49.5675 18.8385Z" fill="#493526"/>
<path d="M26.8672 40.2805C26.7988 40.5067 27.0783 41.5646 27.2266 42.0653C27.3292 41.971 27.5653 41.7295 27.6885 41.5175C27.8425 41.2524 27.8939 40.2981 27.8939 39.9624C27.8939 39.6266 27.8425 39.2555 27.7228 38.9728C27.603 38.69 28.1334 37.9655 28.7494 37.6297C29.3653 37.2939 30.7342 37.1702 31.2304 37.1172C31.6273 37.0748 32.8672 37.4412 33.4376 37.6297C34.0478 37.989 35.3402 38.7536 35.6277 38.9374C35.987 39.1671 36.4661 38.7077 36.3121 38.0892C36.1581 37.4707 35.0117 36.9582 34.5326 36.5871C34.0535 36.216 32.6505 36.0393 31.7266 35.8979C30.8026 35.7565 30.5973 35.7212 30.2893 35.5798C29.9813 35.4384 28.6809 35.6682 27.9281 36.0393C27.1752 36.4104 27.3902 36.8302 27.1287 37.4327C26.9918 38.0688 26.8148 38.3424 26.9174 38.7311C26.7635 38.9785 26.9528 39.9977 26.8672 40.2805Z" fill="#151515"/>
<path d="M28.3907 37.5373C28.4586 37.3143 27.9101 36.8019 27.6273 36.5736C27.4731 36.5736 27.3883 37.0116 27.2726 37.2267C27.1569 37.4417 27.2726 37.7443 27.1184 37.8797C26.9641 38.0151 27.1184 38.5248 27.0567 38.5328C26.995 38.5408 26.9102 38.6921 26.9102 39.8788C26.9102 41.0654 27.4037 41.0734 27.6427 41.1531C27.8818 41.2327 27.8047 40.3566 27.8664 40.1416C27.928 39.9266 27.7198 38.9947 27.689 38.7638C27.6582 38.5328 28.3059 37.816 28.3907 37.5373Z" fill="black"/>
<path d="M51.6189 26.0646C50.7441 27.292 49.3046 30.5599 49.8592 33.6285C50.6111 38.1179 50.821 41.1336 50.2763 42.1053C49.7316 43.0771 49.265 45.289 48.4727 45.6981C45.4559 46.8765 43.9606 47.7754 42.2106 48.59C41.3664 48.7404 40.4641 49.6422 40.173 49.7024C39.8819 49.7625 37.728 50.1834 37.4951 50.5141C37.4784 50.5377 37.4596 50.5617 37.4384 50.5858C37.1476 50.9189 36.3646 51.3847 35.2538 50.965C34.0604 50.5141 31.8773 50.1834 31.3533 50.0932C30.8294 50.003 29.3392 49.8022 28.7454 48.9023C28.5999 48.6016 28.2018 48.4624 27.8604 47.0869C28.2097 45.7641 28.0641 45.5537 28.3261 45.0126C28.5881 44.4714 27.9666 44.0354 27.7741 43.4613C27.3665 43.2509 27.2803 42.7777 27.3073 42.2768C27.6566 41.9161 28.1515 41.2246 28.4717 41.1946C28.7918 41.1645 29.3757 40.8886 29.9869 41.1291C30.5982 41.3696 30.9971 41.4238 30.9458 42.1866C30.894 42.9577 30.8003 43.1787 30.3637 43.3591C29.927 43.5395 29.7233 43.81 29.8397 44.0806C29.9562 44.3512 30.2763 45.2531 30.9167 45.3432C31.5571 45.4334 33.5364 45.2831 34.3223 44.6819C34.9336 43.7499 34.8463 42.0965 36.127 42.0664C37.1516 42.0423 37.5242 40.6735 37.5824 39.9921C37.5533 39.3307 37.856 37.9899 39.2998 37.9177C41.1045 37.8275 43.6077 35.6931 44.0152 35.0317C44.4228 34.3703 44.0735 32.5966 45.2378 32.296C46.4021 31.9953 50.1861 26.073 50.2443 25.8024C50.3025 25.5318 51.0408 25.1923 51.6189 26.0646Z" fill="#151515"/>
<path d="M30.0125 47.084C28.1379 46.918 28.6958 48.4746 29.2091 49.2736C29.7596 49.4196 30.8918 49.7531 31.0168 49.919C31.173 50.1264 32.1103 49.8268 32.1326 49.9882C32.1549 50.1495 33.7618 50.403 34.1635 50.4261C34.4848 50.4445 35.9786 50.1572 36.6853 50.0112L40.256 49.6655C40.3899 49.4811 40.7469 49.0662 41.104 48.8818C41.5503 48.6513 41.9967 48.3056 42.086 47.1531C42.1752 46.0007 40.0328 45.5858 39.2517 45.3092C38.4706 45.0326 36.4175 46.139 35.4802 46.5769C34.5429 47.0148 32.3558 47.2914 30.0125 47.084Z" fill="black"/>
<path d="M28.8075 42.6585C29.0753 42.8798 29.2761 43.5805 29.3431 43.9032C29.5737 43.6266 30.0572 43.0596 30.1465 43.0043C30.258 42.9351 30.325 42.1745 30.325 41.5291C30.325 40.8838 29.5216 41.3908 28.7851 41.7366C28.0487 42.0823 28.4727 42.382 28.8075 42.6585Z" fill="black"/>
<path d="M27.6841 19.4183C28.5649 16.4697 31.1896 14.2948 32.3918 13.5759L33.5656 13.1459L30.6689 11.2423L26.929 10.0495C25.4639 9.55844 22.3008 8.55233 21.3694 8.45613C20.4379 8.35993 19.196 9.47827 18.6914 10.0495C17.6921 10.781 15.7341 13.4105 15.8971 18.0763C16.0601 22.742 22.9372 24.3133 26.3554 24.5157C26.4313 24.0452 26.8033 22.367 27.6841 19.4183Z" fill="#020200"/>
<path d="M33.7402 13.206C27.9378 10.0022 26.0865 10.0225 20.8363 8.50583C21.5523 7.85185 22.9611 7.96717 24.121 8.0849C25.7065 8.24582 27.9372 9.83663 31.0041 10.8611C32.3336 10.5281 34.1186 8.24567 34.759 7.70454C35.3994 7.16341 36.5055 6.86278 37.6407 6.29158C38.7759 5.72039 40.2895 5.81058 44.19 5.72039C48.0904 5.6302 51.1467 7.40391 51.6707 8.03523C52.1946 8.66655 54.203 9.86906 55.5711 10.6808C56.6656 11.3301 57.5407 12.2941 57.8415 12.695C58.1617 12.9054 59.0641 13.8133 60.1119 15.7614C61.1598 17.7095 61.9263 23.4074 62.1786 26.0128C62.4309 28.0571 61.9563 34.6003 60.7232 33.7991C61.0958 32.9092 60.5001 31.9448 60.6051 29.6415C61.3659 27.3517 60.0803 24.9265 60.0803 24.9265C60.0803 24.9265 59.1883 23.4632 56.4443 23.5777C52.4979 18.4773 48.4706 18.5857 45.4998 18.2566C38.1355 16.8737 34.2525 13.5908 33.7402 13.206Z" fill="#161616"/>
<path d="M44.5027 6.51793C42.5791 7.52434 38.5725 9.95281 37.9347 11.6154C40.9415 9.32543 43.5662 7.26294 44.5027 6.51793Z" fill="black"/>
<path d="M45.2077 12.9554C46.1681 11.5578 47.2256 9.23034 47.7677 7.89031C47.682 8.78601 47.0402 10.8717 45.2077 12.9554C44.8004 13.5481 44.4107 13.9736 44.0851 14.0856C44.5013 13.7138 44.8742 13.3346 45.2077 12.9554Z" fill="black"/>
<path d="M48.7929 17.8891C48.5271 17.8891 44.4268 17.3401 43.0601 15.8501C41.9667 14.6581 46.4263 16.7128 48.7929 17.8891Z" fill="black"/>
<path d="M35.2772 10.6743C34.9127 10.8939 33.2271 11.0272 32.4298 11.0664L34.1003 10.5174C33.9105 10.4913 33.4549 10.3214 33.1512 9.85085C32.8474 9.38032 34.037 8.53075 34.6698 8.16478C34.8976 8.4654 35.1633 9.09016 34.404 9.18426C33.6447 9.27837 33.6574 9.79857 33.7586 10.0469C34.4167 10.1645 35.6417 10.4547 35.2772 10.6743Z" fill="black"/>
<path d="M38.069 14.1238C36.5336 12.9621 32.7576 11.4885 31.0615 10.8969C33.1593 10.8969 36.3506 12.6486 41.4166 15.9677C40.9405 15.8371 39.6044 15.2855 38.069 14.1238Z" fill="black"/>
<path d="M29.1258 26.1078C29.5501 25.0475 28.584 24.2169 28.0478 23.9342L26.5592 23.8635C26.3995 24.376 25.8713 25.5053 25.8919 26.0371C25.9308 27.0403 26.7482 27.7571 26.6865 29.2703C27.2397 28.7755 28.7014 27.1681 29.1258 26.1078Z" fill="#C4865A"/>
<path d="M26.681 28.9406C26.6922 28.8947 26.6556 28.6233 26.6277 28.4893L28.2408 27.213L28.5084 27.1915L27.9419 27.9309C27.9315 27.9452 27.773 28.1276 27.2225 28.7421C26.8124 28.8856 26.6671 28.9981 26.681 28.9406Z" fill="white"/>
<path d="M26.7357 28.4091C26.8979 28.3086 26.8677 28.0209 27.2449 28.1512C27.3813 28.1982 27.4906 28.3862 27.4035 28.5443L27.3095 28.6421L27.2895 28.6639C27.2803 28.6865 27.2659 28.7098 27.2243 28.7351C27.2078 28.7451 27.1556 28.7611 26.9866 28.8242C26.8176 28.8873 26.73 28.7732 26.7137 28.7115C26.6974 28.6497 26.6884 28.6153 26.6926 28.5505C26.6968 28.4857 26.7357 28.4091 26.7357 28.4091Z" fill="#152213"/>
<path d="M27.1066 28.3111C27.0807 28.2268 26.9461 28.204 26.882 28.2032C26.8648 28.228 26.8258 28.2863 26.8076 28.321C26.7848 28.3644 26.8088 28.4996 26.8376 28.5741C26.8664 28.6485 27.0262 28.6299 27.097 28.5964C27.1679 28.5629 27.139 28.4165 27.1066 28.3111Z" fill="black"/>
<path d="M27.1311 27.664C27.2996 27.5407 28.1475 27.1077 28.5196 27.1849C28.4933 27.2368 27.6668 27.7162 27.4903 27.859C27.4074 27.9063 27.0804 28.2062 26.9272 28.3503L26.3911 28.6038L26.5954 28.1037C26.6858 27.9785 26.9626 27.7873 27.1311 27.664Z" fill="black"/>
<path d="M33.2926 25.1975C33.0932 24.623 33.8392 24.0639 34.2372 23.8562C34.5063 23.6015 33.5574 23.5277 33.4547 23.3687C33.3726 23.2414 32.9985 23.1743 32.8217 23.1566L33.1981 22.7855L35.0973 21.7075L37.7665 21.6192C37.5156 21.8607 36.9589 22.3614 36.7399 22.4321C36.5209 22.5028 36.2836 23.2273 36.1924 23.5807C36.6886 23.5748 37.8384 23.5631 38.468 23.5631C39.2551 23.5631 41.3597 24.2699 42.2665 25.5246C43.1734 26.7793 40.7266 28.3521 39.9909 28.8646C39.2551 29.377 36.8839 29.921 36.0107 29.8909C35.1374 29.8609 34.4733 28.7202 33.6075 28.3544C32.9148 28.0617 32.8379 27.6905 32.886 27.5414C32.9559 27.2795 33.2034 26.7448 33.6337 26.7014C34.064 26.6581 34.0841 26.2317 34.0404 26.024C33.8742 25.9878 33.492 25.772 33.2926 25.1975Z" fill="#E89F6A"/>
<path d="M36.4623 27.8862C36.1565 27.6951 35.338 27.6976 34.9669 27.7227C34.9256 27.7565 34.8269 27.8842 34.7625 28.1252C34.6821 28.4264 35.9896 28.7484 36.1505 28.6134C36.3114 28.4783 37.1563 28.1356 37.5385 28.0317C37.8442 27.9486 38.4705 27.9347 38.7454 27.9382C38.6549 27.8897 38.4115 27.7865 38.1621 27.7616C37.8503 27.7304 36.8445 28.1252 36.4623 27.8862Z" fill="#D99564"/>
<path d="M34.2797 25.3932C34.32 25.094 34.8597 25.0054 35.1246 24.9984L36.6333 24.666L38.1922 24.853C38.4772 24.9638 39.2644 25.1937 40.1334 25.227C41.2196 25.2685 40.1233 25.8398 40.0127 25.7775C39.9242 25.7277 38.8359 25.9853 38.3029 26.1203C38.0682 26.2623 37.5767 26.5711 37.4882 26.6709C37.3775 26.7955 35.8689 27.1799 35.014 27.3253C34.1591 27.4707 34.7525 27.3045 34.4105 27.1072C34.0685 26.9098 34.3401 26.8994 34.3401 26.567C34.3401 26.2346 34.501 26.4423 34.6016 26.2761C34.7022 26.1099 34.4708 26.0476 34.2999 26.0061C34.1289 25.9645 34.2295 25.7671 34.2797 25.3932Z" fill="#D99564"/>
<path d="M36.1606 24.2505L35.3258 24.4583C35.0683 24.4416 35.2788 24.2228 35.4163 24.1155C35.6845 24.067 36.2933 23.9493 36.583 23.8662C36.9451 23.7623 37.458 23.8038 37.4882 23.8558C37.5123 23.8973 37.1563 23.9839 36.9752 24.022L36.1606 24.2505Z" fill="#D99564"/>
<path d="M35.123 25.1614C35.259 25.0023 36.4139 24.8182 37.9064 25.1767C39.1444 25.474 39.6423 25.442 39.7889 25.4035C39.8045 25.3967 39.8204 25.39 39.8368 25.3832C39.8314 25.3888 39.8163 25.3963 39.7889 25.4035C39.2459 25.6387 39.1669 25.8838 37.7296 26.3281C36.5772 26.8355 36.4453 26.8911 35.6261 27.0294C35.582 27.0708 35.2465 26.7021 35.1592 26.2429C35.0639 25.7411 35.0619 25.1708 35.123 25.1614Z" fill="black"/>
<path d="M36.688 25.1687C37.1044 25.2006 38.6099 25.4188 39.2745 25.5227C38.6449 26.0511 35.862 26.7698 35.7967 26.6767C35.5698 26.3538 35.5343 25.7283 35.4818 25.4303C35.613 25.3219 36.2716 25.1369 36.688 25.1687Z" fill="white"/>
<path d="M36.2381 25.9501C36.1024 25.6252 35.7195 25.6176 35.5139 25.6548L35.7138 26.7227L35.9374 26.6829C36.0942 26.574 36.3739 26.2751 36.2381 25.9501Z" fill="#152213"/>
<path d="M35.9147 25.938C35.8444 25.7156 35.5935 25.7735 35.4843 25.8295C35.5278 26.0276 35.5749 26.355 35.6325 26.3924C35.801 26.3867 36.0027 26.2159 35.9147 25.938Z" fill="black"/>
<path d="M36.9707 25.1122C36.9525 25.109 36.9332 25.1057 36.9131 25.1023C36.6967 25.1004 35.986 25.2606 35.7903 25.2925C35.6956 25.2921 35.2686 25.3898 35.0669 25.4386L34.5225 25.4121L34.8977 25.1623C35.0357 25.0983 35.3631 24.9646 35.5684 24.9416C35.7639 24.9197 36.5123 25.0339 36.9131 25.1023C36.9418 25.1025 36.9617 25.1056 36.9707 25.1122Z" fill="black"/>
<path d="M28.5295 24.1891C28.3213 23.767 27.0616 23.7658 26.495 23.7623C26.2355 24.1513 25.9802 24.9461 25.953 26.065C26.0033 26.0096 26.2496 25.8918 26.5956 25.6009C26.7867 25.3309 27.6014 25.0919 27.8327 25.1958C28.064 25.2997 28.4592 24.6603 28.5295 24.1891Z" fill="black"/>
<path d="M36.9477 19.732C39.59 19.5438 40.5544 20.9606 40.7062 21.6925C40.238 21.9147 39.2028 22.2964 38.808 22.0454C38.3144 21.7317 37.1755 21.8101 35.505 22.0846C35.0494 22.1238 33.0752 23.261 32.5437 23.2217C32.1185 23.1904 31.43 22.712 31.139 22.4767C31.9742 21.6402 34.3053 19.9202 36.9477 19.732Z" fill="black"/>
<path d="M40.6923 21.5132C40.5007 20.9194 39.937 20.4485 39.6519 20.2954C39.3233 20.2671 37.065 20.8652 36.0041 21.1597C35.3596 21.4013 31.8153 22.8574 31.9148 22.9937C32.8037 23.4382 32.7244 23.2658 34.5101 22.4683C36.9239 21.7773 36.8623 21.7283 38.776 22.0963C39.1172 22.149 40.9319 22.2554 40.6923 21.5132Z" fill="#171717"/>
<path d="M30.5807 37.2585C31.1218 37.3705 33.0892 38.1138 34.0759 38.3495C33.9733 38.5321 33.6983 38.5407 33.1981 38.4956C32.5233 38.4348 32.2918 38.5325 31.2994 38.5325C30.5055 38.5325 29.4053 39.0729 28.9718 39.3615C28.5954 39.5795 27.8357 39.7821 27.8083 38.849C27.781 37.916 28.2297 37.772 28.4585 37.6827C28.7152 37.5826 29.4472 37.3461 30.5807 37.2585Z" fill="#BB735C"/>
<path d="M31.4169 37.7708C31.9732 37.8683 33.3652 38.2127 34.0037 38.312C33.2559 38.3843 31.7318 38.4103 31.5219 38.4211C31.312 38.432 30.385 38.6966 29.9477 38.8276C29.4842 38.9811 28.502 39.2747 28.2816 39.2205C28.0062 39.1527 27.9406 39.0308 27.8356 38.7869C27.7517 38.5918 28.028 38.263 28.1767 38.123C28.2292 38.1185 28.4312 38.1257 28.8195 38.1908C29.3049 38.2721 30.7217 37.6488 31.4169 37.7708Z" fill="#CF7D63"/>
<path d="M31.3429 38.191C31.4556 38.1993 32.9939 38.4503 34.0533 38.3776C33.6811 38.5715 33.4711 38.5525 33.1734 38.5026C32.8013 38.4403 32.2984 38.3883 31.6446 38.4091C31.1216 38.4257 30.0924 38.7969 29.6431 38.9804C29.4621 39.1397 28.9753 39.477 28.4764 39.5518C27.8529 39.6453 27.9534 39.3752 27.9534 39.1051C28.0339 38.9077 29.2107 38.7831 29.4018 38.8038C29.5929 38.8246 31.2021 38.1806 31.3429 38.191Z" fill="#A96650"/>
<path d="M32.9521 38.461C33.7165 38.5275 33.8899 38.4499 34.0668 38.3916C33.8188 38.6582 33.512 38.8334 32.8013 39.0532C32.1744 39.247 31.8433 39.2592 31.4413 39.5584C31.3404 39.6335 30.6926 40.2091 29.8332 40.517C28.849 40.8697 28.2363 40.6389 28.1659 40.4377C28.0304 40.05 28.2071 39.7221 28.5088 39.479C28.8643 39.1926 29.4524 39.15 29.9348 38.8246C30.3178 38.5662 31.9966 38.3779 32.9521 38.461Z" fill="#CF7D63"/>
<path d="M28.6374 40.0608C28.3879 39.8946 28.7949 39.5829 29.0296 39.4479C28.3416 39.2553 28.0005 40.0554 28.1609 40.4146C28.2932 40.711 28.71 40.7161 29.0819 40.6802C29.4048 40.6491 30.5886 40.2997 30.307 40.2997C30.0253 40.2997 28.9492 40.2685 28.6374 40.0608Z" fill="#A96650"/>
<path d="M57.1945 24.4037C56.2126 24.1271 54.5635 25.6368 54.0725 26.2668C54.9451 26.6203 56.1903 26.1785 56.7482 25.5331C57.3061 24.8877 57.6632 25.3256 58.2211 25.3717C58.779 25.4178 58.5335 26.3167 58.6451 27.861C58.7567 29.4053 59.9172 29.5206 60.0734 29.1518C60.2296 28.783 59.694 26.0402 59.3593 25.3948C59.0245 24.7494 58.422 24.7494 57.1945 24.4037Z" fill="#C3865A"/>
<path d="M56.9714 28.7138C56.6321 28.1054 55.1191 27.5844 54.4049 27.4001C54.5656 27.732 54.3975 28.5679 54.2933 28.9443C54.6802 29.0365 55.5252 29.2993 55.8109 29.6128C56.168 30.0046 57.5516 31.0188 57.7748 30.4656C57.9979 29.9124 57.3954 29.4745 56.9714 28.7138Z" fill="#C3865A"/>
<path d="M57.9087 32.9318C57.7301 33.1162 56.4358 33.485 55.8109 33.6464C55.5431 33.7017 55.5803 33.1162 55.6323 32.8166C56.1531 32.5784 57.3909 32.0975 58.1765 32.079C59.1584 32.056 58.1318 32.7013 57.9087 32.9318Z" fill="#C3865A"/>
<path d="M53.0882 31.3875C53.6595 31.0372 53.6982 30.5962 53.6461 30.4195C54.0107 30.4195 54.8557 30.5393 55.3199 31.0188C55.7841 31.4982 55.2455 32.0176 54.9182 32.2173C54.0702 32.0867 52.5169 31.7379 53.0882 31.3875Z" fill="#C3865A"/>
<path d="M53.1143 35.8449C52.7174 35.8449 52.1505 35.5032 51.9166 35.3324C51.7113 35.6151 52.1219 36.1983 52.9603 36.4987C53.7987 36.7991 54.1238 36.269 54.8767 36.1099C55.6295 35.9509 56.7854 34.9338 57.8462 34.1033C58.431 33.3636 57.9958 33.1857 57.9394 33.0527C57.5288 33.4651 56.5946 34.3534 56.1429 34.6079C55.5782 34.9259 53.6105 35.8449 53.1143 35.8449Z" fill="#C3865A"/>
<path d="M54.9417 36.0679C53.1172 36.6602 52.1071 36.0683 51.7763 35.603C51.6395 36.7693 52.1511 38.2391 53.0751 38.3805C53.999 38.5219 54.9772 37.6082 55.4071 37.0466C55.8553 36.461 57.6987 34.8768 57.8955 34.0774C57.19 34.501 56.4465 35.3931 54.9417 36.0679Z" fill="#62432D"/>
<path d="M62.4717 54.7907C62.6568 54.2006 62.18 53.5614 61.9185 53.3156L62.3007 53.2637L63.8999 54.3024L63.6384 57.5746L60.0981 60.8883C60.4903 60.0053 61.3251 58.1314 61.5263 57.6992C61.7777 57.1591 62.2404 55.5282 62.4717 54.7907Z" fill="#192016"/>
<path d="M35.376 60.6909C35.4243 60.4749 35.5503 59.4582 35.6073 58.9769L35.4162 59.1535L34.7122 62.7062L35.0038 62.0413C35.1078 61.6812 35.3277 60.907 35.376 60.6909Z" fill="#192016"/>
<path d="M34.366 64.9422C34.4268 64.2521 35.3025 60.3676 35.7328 58.5116C35.4274 58.2995 33.0477 60.1989 32.4452 60.1298C31.8426 60.0606 31.4186 60.6368 29.3431 62.0198C27.2677 63.4027 27.1114 63.1031 25.3261 63.8637C23.5407 64.6243 18.8425 67.9719 17.5593 69.0322C16.6695 69.9936 15.1593 71.1955 13.997 72.8997C11.7922 76.1324 11.8244 78.546 10.7959 82.4701C9.76739 86.3943 8.91453 89.8364 8.43717 92.0405C7.95981 94.2446 7.81135 97.6794 9.61773 98.9246C11.4241 100.17 17.4512 100.345 22.5052 101.002C40.3306 103.317 50.105 101.959 68.5001 101.959C86.8951 101.959 98.8114 103.727 100.103 95.3225C101.395 86.9176 95.0356 78.816 95.0356 78.816C93.3789 76.3509 89.56 70.8116 87.5383 68.3755C85.0111 65.3304 79.199 62.0659 78.5072 61.651C78.2572 61.356 68.6163 56.063 63.8271 53.4534C62.1819 53.1397 61.4315 52.9454 62.0048 53.375C63.5305 54.5182 62.4224 55.414 62.1946 56.4334C61.9668 57.4529 60.4862 61.6093 55.6646 65.7264C50.843 69.8436 37.5557 69.165 34.9735 67.6478C34.6318 66.942 34.2901 65.8049 34.366 64.9422Z" fill="#384432"/>
<path d="M33.7084 66.0388C29.9835 67.7082 22.2077 71.1072 20.9036 71.3477C19.2736 71.6483 16.0426 71.8287 15.8389 72.1293C15.7631 72.2411 15.697 72.1927 15.644 72.0806L15.5432 72.497C14.982 74.7813 14.0676 79.9433 14.8995 82.3164C15.7314 84.6894 16.2034 87.6352 16.3355 88.8115C16.385 90.2264 16.5633 93.2098 16.8802 93.8235C17.2763 94.5906 17.5734 96.176 17.5239 96.5852C17.4843 96.9125 17.4084 97.7785 17.3754 98.1706L11.5818 98.8355L8.90778 92.1358C8.89128 90.5674 9.14547 86.9806 10.2943 85.1804C11.7303 82.9301 9.7246 79.8497 12.6216 75.719C14.9381 72.416 14.9738 71.8196 14.7018 71.9342L15.5188 71.589C15.5188 71.5887 15.5187 71.5885 15.5187 71.5882C16.0135 70.8065 17.1895 69.1411 17.9346 68.7322C18.8661 68.2211 20.8745 66.5677 22.097 65.9063C23.3196 65.2449 25.8811 63.4411 26.0848 63.4712C26.2886 63.5013 28.5008 62.3889 28.6754 62.2987C28.8501 62.2086 31.8482 60.1342 32.1392 60.1943C32.4303 60.2545 34.0895 59.4728 34.8463 59.082C35.4517 58.7694 35.571 58.609 35.6778 58.4887C35.3492 60.8812 34.7323 62.6542 34.2998 64.5137C34.0979 65.318 34.0585 65.459 33.7084 66.0388Z" fill="#34422E"/>
<path d="M34.9045 67.6199C34.6018 67.4515 34.3514 66.0466 34.2641 65.3652C33.1871 66.9886 34.235 69.1531 34.9336 69.7543C35.6322 70.3556 40.3186 70.9869 42.0068 70.8667C43.6951 70.7464 45.558 68.7021 45.1213 68.7923C44.6847 68.8825 40.7261 68.642 39.8819 68.7021C39.0378 68.7623 35.2829 67.8303 34.9045 67.6199Z" fill="#34422E"/>
<path d="M71.6851 100.859C70.9101 98.4354 68.9854 93.3614 67.487 92.4542C65.614 91.3202 60.6408 85.3834 62.1909 83.2488C63.741 81.1143 64.3868 79.3132 66.4536 81.9147C68.5204 84.5162 70.8455 89.1856 71.1038 89.5191C71.1544 89.5845 71.2914 89.8274 71.481 90.18C71.2888 89.1574 71.2242 88.4033 71.3622 88.1183C71.8789 87.051 71.2761 85.7614 70.9101 85.25C68.9079 81.5812 68.9079 81.0475 67.2932 79.1798C65.6786 77.312 65.8077 72.5093 69.0371 72.4426C72.2664 72.3759 75.754 72.0423 76.2061 74.1769C76.6582 76.3115 76.4645 77.9791 78.5958 77.5122C80.7272 77.0452 81.1793 77.5122 83.1814 77.3788C85.1836 77.2453 87.7025 76.3782 88.8005 76.8451C89.8984 77.312 88.3483 78.3793 90.8672 79.7134C93.3861 81.0475 93.3215 81.7813 94.0965 82.982C94.8716 84.1827 94.3549 83.2488 95.4528 85.5835C96.3312 87.4513 96.68 91.6092 96.7446 93.4547L97.2613 97.6572L95.4528 99.2126L82.6185 100.859L74.3977 100.526C74.3333 100.332 74.2658 100.127 74.1958 99.9127C73.5782 100.245 72.3962 100.645 71.6851 100.859Z" fill="#34422E"/>
<path d="M18.4649 79.5035C18.0687 81.6515 16.4842 88.3001 16.4346 88.6581L15.9395 87.8909C15.9725 87.7375 16.5238 85.8452 18.4649 79.5035Z" fill="#303C29"/>
<path d="M30.8369 61.1507C31.5898 61.1224 33.7266 62.2851 34.7009 62.8699C34.8901 62.2085 35.2685 60.8255 35.2685 60.5852C35.2685 60.2848 35.5936 58.5883 35.5251 58.659C35.4567 58.7297 33.8825 59.6839 33.5403 59.9137C33.1981 60.1434 29.8959 61.186 30.8369 61.1507Z" fill="#303C29"/>
<path d="M67.9654 85.0182C68.5121 85.677 71.9391 91.3835 73.5843 94.1544L74.0399 96.2325L71.648 92.978C71.3443 92.4029 70.6534 91.1586 70.3193 90.7822C69.9016 90.3117 68.5729 87.7238 66.9783 85.6064C65.3838 83.489 67.282 84.1948 67.9654 85.0182Z" fill="#303C29"/>
<path d="M73.5463 89.2922C73.6071 89.6059 73.7994 92.5598 73.888 93.9975L74.3815 93.4094C74.3815 91.6449 74.3056 87.7865 74.0019 86.469C73.6982 85.1515 73.192 84.5346 72.9768 84.3908C73.1413 85.8939 73.4856 88.9785 73.5463 89.2922Z" fill="#303C29"/>
<path d="M76.1659 94.1544L74.4954 97.6833C73.9487 95.9581 74.4195 94.4288 74.7232 93.8799L76.1659 94.1544Z" fill="#303C29"/>
<path d="M16.4211 90.5879C16.9354 93.023 17.8591 97.9112 17.4399 97.9834C16.916 98.0736 11.1817 100.749 16.4211 90.5879Z" fill="#303C29"/>
</g>
<path fill-rule="evenodd" clip-rule="evenodd" d="M0.923096 51.7846V72C0.923096 88.5685 14.3546 102 30.9231 102H69C85.5686 102 99 88.5685 99 72V51.7846H94V72C94 85.8071 82.8071 97 69 97H30.9231C17.116 97 5.9231 85.8071 5.9231 72V51.7846H0.923096Z" fill="#867555"/>
</svg>
